<?xml version="1.0" encoding="UTF-8" standalone="no"?>
<svg
   xmlns:sketch="http://www.bohemiancoding.com/sketch/ns"
   xmlns:dc="http://purl.org/dc/elements/1.1/"
   xmlns:cc="http://creativecommons.org/ns#"
   xmlns:rdf="http://www.w3.org/1999/02/22-rdf-syntax-ns#"
   xmlns:svg="http://www.w3.org/2000/svg"
   xmlns="http://www.w3.org/2000/svg"
   xmlns:xlink="http://www.w3.org/1999/xlink"
   xmlns:sodipodi="http://sodipodi.sourceforge.net/DTD/sodipodi-0.dtd"
   xmlns:inkscape="http://www.inkscape.org/namespaces/inkscape"
   width="48px"
   height="48px"
   viewBox="0 0 48 48"
   version="1.1"
   id="svg2"
   inkscape:version="0.91 r13725"
   sodipodi:docname="icono-sucursal.svg">
  <metadata
     id="metadata38">
    <rdf:RDF>
      <cc:Work
         rdf:about="">
        <dc:format>image/svg+xml</dc:format>
        <dc:type
           rdf:resource="http://purl.org/dc/dcmitype/StillImage" />
        <dc:title>Home_4</dc:title>
      </cc:Work>
    </rdf:RDF>
  </metadata>
  <sodipodi:namedview
     pagecolor="#ffffff"
     bordercolor="#666666"
     borderopacity="1"
     objecttolerance="10"
     gridtolerance="10"
     guidetolerance="10"
     inkscape:pageopacity="0"
     inkscape:pageshadow="2"
     inkscape:window-width="1680"
     inkscape:window-height="986"
     id="namedview36"
     showgrid="false"
     inkscape:zoom="4.9166667"
     inkscape:cx="-41.694915"
     inkscape:cy="23.593221"
     inkscape:window-x="0"
     inkscape:window-y="27"
     inkscape:window-maximized="1"
     inkscape:current-layer="g31" />
  <!-- Generator: Sketch 3.4.4 (17249) - http://www.bohemiancoding.com/sketch -->
  <title
     id="title4">Home_4</title>
  <desc
     id="desc6">Created with Sketch.</desc>
  <defs
     id="defs8">
    <linearGradient
       id="linearGradient4182"
       y2="100%"
       x2="48.2139587%"
       y1="-23.7988281%"
       x1="48.2139587%">
      <stop
         id="stop4184"
         offset="0%"
         stop-color="#5AD2F2"
         style="stop-color:#530000;stop-opacity:1" />
      <stop
         id="stop4186"
         offset="100%"
         stop-color="#262A6C"
         style="stop-color:#ff000f;stop-opacity:1" />
    </linearGradient>
    <linearGradient
       id="linearGradient-1"
       y2="100%"
       x2="50%"
       y1="0%"
       x1="50%">
      <stop
         id="stop4176"
         offset="0%"
         stop-opacity="0"
         stop-color="#000000" />
      <stop
         id="stop4178"
         offset="100%"
         stop-color="#000000" />
    </linearGradient>
    <linearGradient
       x1="50%"
       y1="0%"
       x2="50%"
       y2="100%"
       id="linearGradient4180">
      <stop
         stop-color="#000000"
         stop-opacity="0"
         offset="0%"
         id="stop11" />
      <stop
         stop-color="#000000"
         offset="100%"
         id="stop13" />
    </linearGradient>
    <filter
       x="-50%"
       y="-50%"
       width="200%"
       height="200%"
       filterUnits="objectBoundingBox"
       id="filter-2">
      <feGaussianBlur
         stdDeviation="2.07261029"
         in="SourceGraphic"
         result="blur"
         id="feGaussianBlur16" />
    </filter>
    <linearGradient
       x1="48.2139587%"
       y1="-23.7988281%"
       x2="48.2139587%"
       y2="100%"
       id="linearGradient-3">
      <stop
         stop-color="#5AD2F2"
         offset="0%"
         id="stop19" />
      <stop
         stop-color="#262A6C"
         offset="100%"
         id="stop21" />
    </linearGradient>
    <linearGradient
       inkscape:collect="always"
       xlink:href="#linearGradient4182"
       id="linearGradient4172"
       x1="-0.25"
       y1="20.272757"
       x2="40.25"
       y2="20.272757"
       gradientUnits="userSpaceOnUse" />
  </defs>
  <g
     id="Page-1"
     stroke="none"
     stroke-width="1"
     fill="none"
     fill-rule="evenodd"
     sketch:type="MSPage">
    <g
       id="Home_4"
       sketch:type="MSArtboardGroup">
      <g
         id="Bulle-01"
         sketch:type="MSLayerGroup"
         transform="translate(2.000000, 4.000000)">
        <g
           id="Ombre"
           transform="translate(0.000000, 17.000000)"
           filter="url(#filter-2)"
           fill-opacity="0.75"
           fill="url(#linearGradient-1)"
           sketch:type="MSShapeGroup">
          <g
             id="Triangle-1">
            <path
               d="M24.9915435,22 L20.6717206,16.0416667 L13.9419313,16.0416667 C9.69459375,16.0416667 5.17564942,13.8782161 3.85271353,11.2177638 L0.673303794,4.82390288 C-0.651479741,2.15973488 2.65579674,0 8.06935076,0 L33.1122376,0 C38.521745,0 42.689631,2.16345054 42.4223052,4.82390288 L41.7798417,11.2177638 C41.5121427,13.8819318 37.8551594,16.0416667 33.6046447,16.0416667 L26.9554156,16.0416667 L24.9915435,22 Z"
               id="path28" />
          </g>
        </g>
        <g
           id="Bulle"
           transform="translate(2.000000, 0.000000)"
           stroke-width="0.5"
           stroke="#FFFFFF"
           fill="url(#linearGradient-3)"
           sketch:type="MSShapeGroup">
          <g
             id="g31">
            <path
               d="M23.6321839,29.1666667 L20.045977,40 L16.4597701,29.1666667 L9.00170731,29.1666667 C4.03020164,29.1666667 0,25.1417888 0,20.1578097 L0,9.00885696 C0,4.03340265 4.03700043,0 9.00170731,0 L30.9982927,0 C35.9697984,0 40,4.02487783 40,9.00885696 L40,20.1578097 C40,25.133264 35.9629996,29.1666667 30.9982927,29.1666667 L23.6321839,29.1666667 Z"
               id="path33"
               style="fill:url(#linearGradient4172);fill-opacity:1.0" />
          </g>
        </g>
      </g>
      <path
         d="M25.3741995,16.3073225 C25.3741995,15.6039993 24.8039693,15.0338226 24.1006996,15.0338226 C23.3974299,15.0338226 22.827307,15.6039993 22.827307,16.3073225 C22.827307,17.0105922 23.3974299,17.5807688 24.1006996,17.5807688 C24.8039693,17.5807688 25.3741995,17.0105922 25.3741995,16.3073225 L25.3741995,16.3073225 Z M31.0812207,18.7485235 L17.2193816,18.7485235 L24.1228997,12.7202451 L31.0812207,18.7485235 Z M32.2131014,13.7489546 L29.615374,11.3116145 L29.615374,9.30111589 L32.2131014,9.30111589 L32.2131014,13.7489546 Z M31.8243861,21.9045232 C32.3748293,21.9045232 32.8209752,21.4583773 32.8209752,20.9079877 C32.8209752,20.3574372 32.3748293,19.9112913 31.8243861,19.9112913 L26.0776836,19.9112913 L26.0776836,25.1158621 L31.8243861,25.1158621 C32.3748293,25.1158621 32.8209752,24.669609 32.8209752,24.1192193 C32.8209752,23.5688297 32.3748293,23.1225766 31.8243861,23.1225766 L29.0513641,23.1225766 L29.0513641,21.9045232 L31.8243861,21.9045232 Z M16.4184639,19.9112913 C15.8680743,19.9112913 15.4218748,20.3574372 15.4218748,20.9079877 C15.4218748,21.4583773 15.8680743,21.9045232 16.4184639,21.9045232 L19.191486,21.9045232 L19.191486,23.1225766 L16.4184639,23.1225766 C15.8680743,23.1225766 15.4218748,23.5688297 15.4218748,24.1192193 C15.4218748,24.669609 15.8680743,25.1158621 16.4184639,25.1158621 L22.16522,25.1158621 L22.16522,19.9112913 L16.4184639,19.9112913 Z M24.1248837,8 L13.3496022,17.6129428 C12.9008823,18.0130263 12.8823823,18.7069655 13.3041296,19.1309649 C13.6934348,19.5224687 14.3198086,19.543918 14.7350139,19.1800839 L24.1209156,10.9464934 L33.3562967,19.0660807 C33.7705367,19.4304511 34.3964816,19.4103424 34.7865911,19.0202328 C35.2110732,18.5957507 35.1915543,17.9017579 34.7448186,17.5015136 L24.1248837,8 Z M15.4218748,27.2197725 C15.4218748,26.6693829 15.8680743,26.2231297 16.4184639,26.2231297 L31.8243861,26.2231297 C32.3748293,26.2231297 32.8209752,26.6693829 32.8209752,27.2197725 C32.8209752,27.7701621 32.3748293,28.2164153 31.8243861,28.2164153 L16.4184639,28.2164153 C15.8680743,28.2164153 15.4218748,27.7701621 15.4218748,27.2197725 L15.4218748,27.2197725 Z"
         id="Fill-1"
         fill="#FFFFFF"
         sketch:type="MSShapeGroup" />
    </g>
  </g>
</svg>
